<?xml version="1.0"?>
<svg xmlns="http://www.w3.org/2000/svg" width="1200" height="900">
  <rect width="1200" height="900" rx="44" fill="#f5f7f2"/>
  <text x="600" y="78" text-anchor="middle" font-family="Arial" font-size="46" font-weight="800" fill="#17212b">SIGNALISATION VERTICALE &#x2014; M&#xC9;MO</text>
  <g font-family="Arial" text-anchor="middle" font-weight="700">
    <path d="M170 155 270 330H70Z" fill="#fff" stroke="#d72638" stroke-width="20"/>
    <text x="170" y="385" font-size="28">DANGER</text>
    <text x="170" y="420" font-size="21" font-weight="400">triangle rouge</text>
    <circle cx="470" cy="245" r="105" fill="#fff" stroke="#d72638" stroke-width="24"/>
    <rect x="400" y="226" width="140" height="38" fill="#d72638"/>
    <text x="470" y="385" font-size="28">INTERDICTION</text>
    <text x="470" y="420" font-size="21" font-weight="400">cercle bord&#xE9; rouge</text>
    <circle cx="760" cy="245" r="115" fill="#1769c2"/>
    <path d="M690 255h105l-35 35 26 26 80-80-80-80-26 26 35 35H690Z" fill="#fff"/>
    <text x="760" y="385" font-size="28">OBLIGATION</text>
    <text x="760" y="420" font-size="21" font-weight="400">cercle bleu</text>
    <rect x="945" y="140" width="210" height="210" rx="16" fill="#1769c2"/>
    <circle cx="1050" cy="205" r="22" fill="#fff"/>
    <rect x="1033" y="245" width="34" height="75" rx="15" fill="#fff"/>
    <text x="1050" y="385" font-size="28">INDICATION</text>
    <text x="1050" y="420" font-size="21" font-weight="400">carr&#xE9; ou rectangle</text>
    <circle cx="300" cy="635" r="110" fill="#fff" stroke="#222" stroke-width="9"/>
    <path d="M225 710 375 560M255 740 405 590" stroke="#222" stroke-width="16"/>
    <text x="300" y="790" font-size="28">FIN D&#x2019;INTERDICTION</text>
    <circle cx="600" cy="635" r="110" fill="#1769c2"/>
    <path d="M530 645h105l-35 35 26 26 80-80-80-80-26 26 35 35H530Z" fill="#fff"/>
    <path d="M515 720 685 550" stroke="#e23b3b" stroke-width="28"/>
    <text x="600" y="790" font-size="28">FIN D&#x2019;OBLIGATION</text>
    <rect x="825" y="530" width="210" height="210" rx="15" fill="#fff" stroke="#111" stroke-width="8" transform="rotate(45 930 635)"/>
    <rect x="858" y="563" width="144" height="144" fill="#f6d13a" transform="rotate(45 930 635)"/>
    <text x="930" y="825" font-size="28">PRIORIT&#xC9;</text>
    <text x="600" y="870" font-size="24" fill="#52606d">La prescription commence &#xE0; hauteur du panneau.</text>
  </g>
</svg>
