<?xml version='1.0' encoding='utf-8'?>
<svg xmlns="http://www.w3.org/2000/svg" xmlns:ns1="http://www.inkscape.org/namespaces/inkscape" xmlns:ns2="http://sodipodi.sourceforge.net/DTD/sodipodi-0.dtd" version="1.1" viewBox="0 0 600 872" width="600" height="872" role="img"><title>q0722 — composition pour vérification humaine</title><desc>Assemblage tourner à gauche interdit + panonceau de camion.</desc><svg version="1.1" x="0" y="0" width="600" height="600" viewBox="-0.943 -0.943 576 576" enable-background="new -0.943 -0.943 576 576" xml:space="preserve" id="q0722-0-svg2" ns1:version="0.48.1 " ns2:docname="B2a.svg" ns1:export-filename="C:\Documents and Settings\bertrand.bouteilles\Bureau\Panneaux\A - Route\3_interdiction\B2a.png" ns1:export-xdpi="150" ns1:export-ydpi="150" preserveAspectRatio="xMidYMid meet"><defs id="q0722-0-defs4">
</defs>
<circle fill="#FFFFFF" stroke="#000000" stroke-width="0.1764" stroke-linecap="round" stroke-linejoin="round" cx="287.057" cy="287.057" r="286.969" id="q0722-0-circle6" style="stroke-width:2;stroke-miterlimit:4;stroke-dasharray:none" />
<circle cx="287.057" cy="287.057" r="273.982" id="q0722-0-circle8" style="fill:#ff0000;stroke-width:2;stroke-miterlimit:4;stroke-dasharray:none" stroke-linejoin="round" stroke-linecap="round" stroke-width="0.1764" stroke="#FF0000" fill="#EA190E" />
<path d="M444.894,397.147  c56.203-80.579,42.686-190.557-31.359-255.127c-74.045-64.569-184.839-62.997-257.021,3.649l283.008,246.793L444.894,397.147z" id="q0722-0-path10" stroke-linejoin="round" stroke-linecap="round" stroke-width="0.1764" stroke="#FF0000" fill="#FFFFFF" />
<path fill="#FFFFFF" stroke="#FF0000" stroke-width="0.1764" stroke-linecap="round" stroke-linejoin="round" d="M417.433,428.6  c-72.261,66.561-183.057,68.002-257.025,3.345c-73.968-64.657-87.356-174.651-31.057-255.164l282.715,247.128L417.433,428.6z" id="q0722-0-path12" />
<polygon points="189.028,228.952 165.96,228.952 165.96,215.487 128.67,246.265 166.257,281.375 166.257,260.801 225.514,260.801 " id="q0722-0-polygon14" style="fill:#000000;fill-opacity:1;stroke:#000000;stroke-width:10;stroke-linecap:square;stroke-linejoin:miter;stroke-miterlimit:4;stroke-opacity:1;stroke-dasharray:none" transform="translate(-7.692834,-3.620562e-8)" />
<path d="m 259.10208,228.952 36.524,31.85 c 14.815,0.055 27.344,10.98 29.414,25.651 l 36.766,32.06 V 287.17 c 0,-17.066 -7.413,-33.291 -20.313,-44.463 -12.9,-11.172 -30.018,-16.191 -46.909,-13.754 h -35.482 z" id="q0722-0-path16" style="fill:#000000;fill-opacity:1;stroke:#000000;stroke-width:10;stroke-linecap:square;stroke-linejoin:miter;stroke-miterlimit:4;stroke-opacity:1;stroke-dasharray:none" ns1:connector-curvature="0" />
<polygon points="318.949,341.236 318.956,437.926 355.417,437.926 355.417,373.072 " id="q0722-0-polygon18" style="fill:#000000;fill-opacity:1;stroke:#000000;stroke-width:10;stroke-linecap:square;stroke-linejoin:miter;stroke-miterlimit:4;stroke-opacity:1;stroke-dasharray:none" transform="translate(6.38908,12.286689)" />
</svg><svg viewBox="0 0 320 220" x="175" y="700" width="250" height="172" preserveAspectRatio="xMidYMid meet"><rect x="3" y="3" width="314" height="214" rx="10" ry="10" fill="#ffffff" stroke="#000000" stroke-width="3" />
    <svg version="1.1" x="20" y="20" width="280" height="180" viewBox="142 215 280 152" enable-background="new -0.031 -0.031 576 576" xml:space="preserve" id="q0722-1-truck-svg2" ns1:version="0.48.1 " ns2:docname="B8.svg" ns1:export-filename="C:\Documents and Settings\bertrand.bouteilles\Bureau\Panneaux\A - Route\3_interdiction\B8.png" ns1:export-xdpi="150" ns1:export-ydpi="150" preserveAspectRatio="xMidYMid meet"><defs id="q0722-1-truck-defs4">
</defs>
<circle stroke="#000000" stroke-width="0.1764" stroke-linecap="round" stroke-linejoin="round" cx="368.662" cy="336.973" r="26.596" id="q0722-1-truck-circle12" />
<circle stroke="#000000" stroke-width="0.1764" stroke-linecap="round" stroke-linejoin="round" cx="205.775" cy="336.973" r="26.621" id="q0722-1-truck-circle14" />
<path stroke="#000000" stroke-width="0.1764" stroke-linecap="round" stroke-linejoin="round" d="M338.824,337.953l-103.081-1.275  l-1.028-6.386l-1.195-4.734l-2.39-4.235l-3.244-4.485l-5.974-5.232l-6.146-2.989l-6.487-1.246l-6.316-0.249l-7.852,1.744  l-8.023,4.734l-5.121,5.232l-3.756,6.478l-2.219,8.223l-0.517,5.619l-32.392-1.183l1.84-8.063h5.523l3.682-41.66h4.603l4.603-33.597  l4.603-4.031l34.059-1.345v-28.206c0-0.359,0.144-0.704,0.399-0.958c0.255-0.254,0.601-0.395,0.96-0.393l213.632,1.328  c0.738,0.004,1.336,0.601,1.342,1.339l0.91,114.241h-20.657l-0.487-3.898l-1.137-4.979l-2.273-4.741l-2.273-4.03l-3.41-4.029  l-5.359-3.794l-5.359-2.37l-5.847-1.186h-7.633l-5.521,0.949l-6.172,2.606l-5.685,4.741l-3.085,3.793l-3.735,5.927l-1.624,7.112  L338.824,337.953z" id="q0722-1-truck-path16" />
<polygon fill="#FFFFFF" stroke="#000000" stroke-width="0.1764" stroke-linecap="round" stroke-linejoin="round" points="  169.78,255.993 201.077,255.993 199.236,289.589 164.256,288.245 " id="q0722-1-truck-polygon18" />
</svg></svg></svg>