<?xml version='1.0' encoding='utf-8'?>
<svg xmlns="http://www.w3.org/2000/svg" xmlns:ns1="http://sodipodi.sourceforge.net/DTD/sodipodi-0.dtd" xmlns:ns2="http://www.inkscape.org/namespaces/inkscape" version="1.1" viewBox="0 0 600 781" width="600" height="781" role="img"><title>q0671 — composition pour vérification humaine</title><desc>Assemblage limitation 60 + panonceau de motocyclette.</desc><svg version="1.1" id="q0671-0-France_road_signs_B14" x="0" y="0" width="600" height="600" viewBox="1.56 1.561 581 581" enable-background="new 1.56 1.561 581 581" xml:space="preserve" ns1:docname="France_road_sign_B14_(50).svg" ns2:version="1.2.2 (732a01da63, 2022-12-09)" preserveAspectRatio="xMidYMid meet"><defs id="q0671-0-defs13" /><circle fill="#FFFFFF" stroke="#000000" stroke-width="0.9931" stroke-linecap="round" stroke-linejoin="round" cx="291.56" cy="291.561" r="285" id="q0671-0-circle2" />
<circle fill="#FF0000" stroke="#FF0000" stroke-width="0.1752" stroke-linecap="round" stroke-linejoin="round" cx="291.56" cy="291.561" r="272.101" id="q0671-0-circle4" />
<circle fill="#ffffff" stroke="#ff0000" stroke-width="0.1752" stroke-linecap="round" stroke-linejoin="round" cx="291.56" cy="291.561" r="191.118" id="q0671-0-circle6" />

<g id="q0671-0-g8164" transform="translate(0,2.3774546)"><path id="q0671-0-rect5362" style="opacity:1;fill:#000000;stroke-width:6.36384;stroke-linecap:round;stroke-linejoin:round;stroke-dashoffset:6.67087;paint-order:stroke fill markers" d="m 375.7199,179.29541 c -63.15824,0 -78.34527,52.46518 -78.34527,114.66749 0,57.0168 15.18703,105.10879 78.34527,105.10879 63.15823,0 78.34527,-48.09199 78.34527,-105.10879 0,-62.20231 -15.18704,-114.66749 -78.34527,-114.66749 z m 0,42.26484 c 32.04978,0 35.40948,28.03757 35.40948,67.69736 0,39.65978 -3.3597,67.6952 -35.40948,67.6952 -32.04978,0 -35.40949,-28.03542 -35.40949,-67.6952 0,-39.65979 3.35971,-67.69736 35.40949,-67.69736 z" /></g><g aria-label="60" id="q0671-0-text4020" style="font-weight:bold;font-size:301.676px;line-height:1.25;font-family:'Russian Road Sign';-inkscape-font-specification:'Russian Road Sign Bold';text-align:center;text-anchor:middle;fill:#000000;fill-rule:evenodd;stroke-width:12.0671;stroke-linecap:round;stroke-linejoin:round;fill-opacity:1"><path d="m 229.39922,182.95593 q 44.33812,6.62863 57.00616,49.93563 l -41.09747,11.34231 q -5.89211,-16.2033 -21.6535,-18.26554 -27.1037,-3.38796 -35.35265,12.66804 -5.45021,8.83816 -8.54356,44.19082 30.93357,-21.5062 67.02274,-7.95435 28.72403,12.52073 36.82568,40.95016 1.62033,8.54356 1.62033,16.4979 0,23.71574 -14.43566,41.83398 -17.08712,21.3589 -47.72609,24.01035 -5.5975,0.4419 -10.9004,0.4419 -69.37959,0 -74.68249,-82.48953 -0.58921,-10.9004 -0.58921,-20.91698 0,-32.2593 5.59751,-55.53313 7.51244,-30.63897 30.19706,-45.81115 17.67632,-11.93153 42.27588,-11.93153 7.07053,0 14.43567,1.03112 z M 208.33493,359.2773 q 31.08087,1.32573 35.35265,-21.50619 1.17842,-24.74686 -25.63067,-27.84022 -31.52279,-1.17842 -35.20536,22.97923 0.29461,23.86304 25.48338,26.36718 z" style="font-family:'Caracteres L1';-inkscape-font-specification:'Caracteres L1 Bold';fill:#000000;fill-opacity:1" id="q0671-0-path4241" /></g></svg><svg width="370" height="151" id="q0671-1-svg3864" version="1.1" ns2:version="0.91 r13725" ns1:docname="France_road_sign_M4c.svg" viewBox="0 0 430 175" x="115" y="620" preserveAspectRatio="xMidYMid meet">
  <defs id="q0671-1-defs3866" />
  <g ns2:label="Calque 1" ns2:groupmode="layer" id="q0671-1-layer1" transform="translate(0,-877.36219)">
    <rect style="fill:#ffffff;stroke:#000000;stroke-width:1.52710259;stroke-miterlimit:4;stroke-dasharray:none;stroke-opacity:1" id="q0671-1-rect2995" width="428.47272" height="173.4729" x="0.76364237" y="878.12573" ry="30.872194" />
    <g id="q0671-1-g4356" transform="matrix(0.70621469,0,0,0.70621469,276.36309,364.04201)">
      <path id="q0671-1-path4296" d="m -205.64013,832.76137 c -29.961,0 -54.25,23.617 -54.25,52.75 0,29.133 24.289,52.75 54.25,52.75 29.961,0 54.25,-23.617 54.25,-52.75 0,-29.133 -24.289,-52.75 -54.25,-52.75 z m 0,89 c -20.297,0 -36.75,-16.175 -36.75,-36.13 0,-19.954 16.453,-36.13 36.75,-36.13 20.297,0 36.75,16.176 36.75,36.13 0,19.955 -16.453,36.13 -36.75,36.13 z" ns2:connector-curvature="0" style="stroke:#000000" />
      <path id="q0671-1-path4298" d="m 24.35987,833.76137 c -29.961,0 -54.25,23.617 -54.25,52.75 0,29.133 24.289,52.75 54.25,52.75 29.961,0 54.25,-23.617 54.25,-52.75 0,-29.133 -24.289,-52.75 -54.25,-52.75 z m 0,89 c -20.297,0 -36.75,-16.175 -36.75,-36.13 0,-19.954 16.453,-36.13 36.75,-36.13 20.297,0 36.75,16.176 36.75,36.13 0,19.955 -16.453,36.13 -36.75,36.13 z" ns2:connector-curvature="0" />
      <ellipse id="q0671-1-ellipse4300" ry="18" rx="18.75" cy="885.26135" cx="-205.14014" style="stroke:#ff0000;stroke-width:0.17640001;stroke-linecap:round;stroke-linejoin:round" />
      <ellipse id="q0671-1-ellipse4302" ry="18" rx="18.75" cy="885.76135" cx="23.609863" style="stroke:#ff0000;stroke-width:0.17640001;stroke-linecap:round;stroke-linejoin:round" />
      <polygon transform="translate(-374.35913,563.79237)" id="q0671-1-polygon4304" points="217.469,234.969 167.469,311.969 177.969,318.469 234.969,242.469 " />
      <path id="q0671-1-path4306" d="m -108.70513,893.75737 c 3.17,1.29 19.07,0.916 22.788,-0.996 l 60.027,0 59.5,-91 -129.5,0 0,43.116 c -0.823,-0.074 -1.656,-0.116 -2.5,-0.116 -14.636,0 -26.5,11.417 -26.5,25.5 0,10.562 6.674,19.625 16.185,23.496" ns2:connector-curvature="0" style="opacity:0.98999999" />
      <rect id="q0671-1-rect4308" height="13.5" width="104" y="880.76135" x="-17.390137" />
      <polygon transform="translate(-374.35913,563.79237)" id="q0671-1-polygon4310" points="389.969,274.969 375.969,281.969 389.469,310.469 401.469,307.469 " />
      <polygon transform="translate(-374.35913,563.79237)" id="q0671-1-polygon4312" points="192.469,225.969 194.469,219.469 198.469,215.969 209.969,216.469 217.969,220.469 224.469,225.969 227.969,221.469 232.969,209.469 236.969,204.469 240.969,202.969 246.969,201.469 253.469,200.469 264.469,198.469 267.969,200.969 269.469,204.969 242.969,211.969 238.469,219.469 249.969,224.469 276.969,226.469 286.469,227.469 294.969,230.469 303.969,235.969 309.969,244.969 265.469,290.969 255.969,287.469 255.469,279.969 249.469,278.969 241.969,278.469 234.469,275.469 228.969,270.469 221.969,258.469 217.469,251.969 212.469,249.469 198.469,249.969 193.969,244.469 191.969,237.969 191.969,231.469 " />
      <polygon transform="translate(-374.35913,563.79237)" id="q0671-1-polygon4314" points="407.219,237.969 412.719,262.969 423.219,266.469 430.219,270.469 436.719,274.969 443.719,281.969 448.219,287.969 452.719,298.469 453.719,303.969 439.219,305.969 402.719,277.969 378.719,279.469 367.219,248.469 399.219,239.469 " />
      <rect id="q0671-1-rect4316" height="15" width="19.5" y="836.26135" x="-101.89014" />
      <rect id="q0671-1-rect4318" height="12.75" width="95" y="881.26135" x="-105.64014" />
    </g>
  </g>
</svg></svg>